HIERARCHY
ROOT Hips
{
	OFFSET 0.000000 0.000000 0.000000
	CHANNELS 6 Xposition Yposition Zposition Zrotation Yrotation Xrotation 
	JOINT LowerBack
	{
		OFFSET 0.000000 0.000000 0.000000
		CHANNELS 3 Zrotation Yrotation Xrotation
		JOINT Spine
		{
			OFFSET 0.028270 2.035590 -0.193380
			CHANNELS 3 Zrotation Yrotation Xrotation
			JOINT Spine1
			{
				OFFSET 0.056720 2.048850 -0.042750
				CHANNELS 3 Zrotation Yrotation Xrotation
				JOINT Neck
				{
					OFFSET 0.000000 0.000000 0.000000
					CHANNELS 3 Zrotation Yrotation Xrotation
					JOINT Neck1
					{
						OFFSET -0.054170 1.746240 0.172020
						CHANNELS 3 Zrotation Yrotation Xrotation
						JOINT Head
						{
							OFFSET 0.104070 1.761360 -0.123970
							CHANNELS 3 Zrotation Yrotation Xrotation
							End Site
							{
								OFFSET 0.000000 0.000000 0.000000
							}
						}
					}
				}
				JOINT LeftShoulder
				{
					OFFSET 0.000000 0.000000 0.000000
					CHANNELS 3 Zrotation Yrotation Xrotation
					JOINT LeftArm
					{
						OFFSET 3.362410 1.200890 -0.311210
						CHANNELS 3 Zrotation Yrotation Xrotation
						JOINT LeftForeArm
						{
							OFFSET 4.983000 -0.000000 -0.000000
							CHANNELS 3 Zrotation Yrotation Xrotation
							JOINT LeftHand
							{
								OFFSET 3.483560 -0.000000 -0.000000
								CHANNELS 3 Zrotation Yrotation Xrotation
								JOINT LeftFingerBase
								{
									OFFSET 0.000000 0.000000 0.000000
									CHANNELS 3 Zrotation Yrotation Xrotation
									JOINT LeftHandIndex1
									{
										OFFSET 0.715260 -0.000000 -0.000000
										CHANNELS 3 Zrotation Yrotation Xrotation
										End Site
										{
											OFFSET 0.000000 0.000000 0.000000
										}
									}
								}
								JOINT LThumb
								{
									OFFSET 0.000000 0.000000 0.000000
									CHANNELS 3 Zrotation Yrotation Xrotation
									End Site
									{
										OFFSET 0.000000 0.000000 0.000000
									}
								}
							}
						}
					}
				}
				JOINT RightShoulder
				{
					OFFSET 0.000000 0.000000 0.000000
					CHANNELS 3 Zrotation Yrotation Xrotation
					JOINT RightArm
					{
						OFFSET -3.136600 1.374050 -0.404650
						CHANNELS 3 Zrotation Yrotation Xrotation
						JOINT RightForeArm
						{
							OFFSET -5.241900 -0.000000 -0.000000
							CHANNELS 3 Zrotation Yrotation Xrotation
							JOINT RightHand
							{
								OFFSET -3.444170 -0.000000 -0.000000
								CHANNELS 3 Zrotation Yrotation Xrotation
								JOINT RightFingerBase
								{
									OFFSET 0.000000 0.000000 0.000000
									CHANNELS 3 Zrotation Yrotation Xrotation
									JOINT RightHandIndex1
									{
										OFFSET -0.622530 -0.000000 -0.000000
										CHANNELS 3 Zrotation Yrotation Xrotation
										End Site
										{
											OFFSET 0.000000 0.000000 0.000000
										}
									}
								}
								JOINT RThumb
								{
									OFFSET 0.000000 0.000000 0.000000
									CHANNELS 3 Zrotation Yrotation Xrotation
									End Site
									{
										OFFSET 0.000000 0.000000 0.000000
									}
								}
							}
						}
					}
				}
			}
		}
	}
}
}
MOTION
Frames: 9
Frame Time: 0.008333
-2.422257 15.899176 -0.928720 51.333691 84.134519 77.704539 5.466485 -3.083684 10.762733 0.463791 -2.995529 -0.848123 -5.411911 -2.983740 -0.683582 6.807105 -8.176220 -6.157874 -3.192441 -0.227227 -0.014575 0.000000 0.000000 0.000000 3.862050 3.564827 1.648985 -54.403410 -9.922213 7.572751 -179.732344 -87.897868 179.984721 1.138695 6.308132 0.066458 -0.105996 0.280412 -0.000000 0.000000 0.000000 0.000000 0.000000 0.000000 0.000000 10.586141 -5.451045 1.975951 72.514614 -12.736948 2.485759 1.020283 60.400955 -0.010243 -4.084059 0.917370 -0.039037 0.066547 -0.174577 -0.000000 0.000000 0.000000 0.000000 0.000000 0.000000 0.000000 
-2.291742 15.886685 -0.871173 50.213174 83.869400 76.454153 5.482616 -3.054236 10.826018 0.470145 -2.961584 -0.847635 -5.389777 -2.951940 -0.718821 6.900096 -7.852768 -6.005928 -3.197664 -0.228839 0.026910 0.000000 0.000000 0.000000 3.850902 3.485322 1.665652 -55.215911 -9.196071 8.161451 -179.790739 -88.755091 179.986750 0.904446 6.213261 0.053045 -0.099928 0.275073 -0.000000 0.000000 0.000000 0.000000 0.000000 0.000000 0.000000 10.666147 -5.145082 1.927205 72.523300 -11.626201 2.214068 1.014207 60.114054 -0.011131 -4.303236 0.887684 -0.040040 0.068265 -0.177365 -0.000000 0.000000 0.000000 0.000000 0.000000 0.000000 0.000000 
-2.162873 15.875162 -0.813468 49.374337 83.593436 75.488934 5.482748 -3.025954 10.882538 0.472801 -2.929501 -0.846423 -5.368530 -2.921878 -0.746569 7.002832 -7.553019 -5.852575 -3.198225 -0.230149 0.068997 0.000000 0.000000 0.000000 3.834405 3.401425 1.682997 -56.015786 -8.490023 8.758933 -179.855184 -89.705087 179.988887 0.643106 6.118097 0.038530 -0.093447 0.269237 -0.000000 0.000000 0.000000 0.000000 0.000000 0.000000 0.000000 10.743268 -4.868002 1.871341 72.541375 -10.479662 1.918075 1.004487 59.866263 -0.012132 -4.543460 0.847166 -0.040843 0.070135 -0.180285 -0.000000 0.000000 0.000000 0.000000 0.000000 0.000000 0.000000 
-2.035597 15.864966 -0.756141 48.680345 83.310409 74.684385 5.477217 -2.997423 10.924379 0.474058 -2.898420 -0.846953 -5.347695 -2.892918 -0.769409 7.107558 -7.262695 -5.698789 -3.194602 -0.231190 0.111415 0.000000 0.000000 0.000000 3.798167 3.318840 1.704870 -56.794340 -7.802275 9.355357 0.075046 -89.260500 -0.008903 0.354388 6.024379 0.023113 -0.086744 0.262947 0.000000 0.000000 0.000000 0.000000 0.000000 0.000000 0.000000 10.808797 -4.602001 1.809208 72.569271 -9.310389 1.599296 0.990966 59.664294 -0.013247 -4.804557 0.805093 -0.041547 0.072131 -0.183461 -0.000000 0.000000 0.000000 0.000000 0.000000 0.000000 0.000000 
-1.910171 15.856370 -0.699452 48.052601 83.013625 73.956036 5.463640 -2.967531 10.962885 0.473121 -2.866727 -0.846978 -5.327195 -2.863380 -0.788924 7.211503 -6.987585 -5.548831 -3.187114 -0.231926 0.152677 0.000000 0.000000 0.000000 3.739281 3.236342 1.731913 -57.545425 -7.128358 9.942211 0.000506 -88.151405 -0.006720 0.050259 5.936087 0.007295 -0.080057 0.256180 0.000000 0.000000 0.000000 0.000000 0.000000 0.000000 0.000000 10.862332 -4.350661 1.742365 72.603686 -8.114261 1.271246 0.972959 59.517013 -0.014520 -5.093167 0.750191 -0.041751 0.074317 -0.186865 -0.000000 0.000000 0.000000 0.000000 0.000000 0.000000 0.000000 
-1.786651 15.849638 -0.643794 47.369771 82.706595 73.192120 5.450649 -2.934715 10.993552 0.472043 -2.833108 -0.848225 -5.306099 -2.832129 -0.807812 7.308343 -6.714702 -5.403320 -3.176010 -0.232377 0.192608 0.000000 0.000000 0.000000 3.650975 3.158863 1.766476 -58.267541 -6.462223 10.508833 -0.078176 -86.977030 -0.004607 -0.265434 5.854017 -0.008523 -0.073542 0.249030 0.000000 0.000000 0.000000 0.000000 0.000000 0.000000 0.000000 10.896065 -4.097417 1.671717 72.642893 -6.901411 0.946114 0.950618 59.428179 -0.015952 -5.407410 0.691852 -0.041756 0.076669 -0.190605 -0.000000 0.000000 0.000000 0.000000 0.000000 0.000000 0.000000 
-1.665203 15.844918 -0.589305 46.559473 82.386817 72.320254 5.438718 -2.897939 11.020676 0.470971 -2.796257 -0.850146 -5.283824 -2.797867 -0.827851 7.394935 -6.442017 -5.264216 -3.161344 -0.232524 0.230550 0.000000 0.000000 0.000000 3.533483 3.087595 1.808995 -58.959454 -5.796266 11.046859 -0.160311 -85.747810 -0.002632 -0.582360 5.780120 -0.024042 -0.067369 0.241551 0.000000 0.000000 0.000000 0.000000 0.000000 0.000000 0.000000 10.906702 -3.837713 1.598308 72.684741 -5.674179 0.640196 0.923954 59.402339 -0.017547 -5.745694 0.628365 -0.041361 0.079182 -0.194694 -0.000000 0.000000 0.000000 0.000000 0.000000 0.000000 0.000000 
-1.545916 15.842242 -0.535979 45.571202 82.052550 71.291840 5.427383 -2.856254 11.045604 0.469994 -2.755024 -0.852718 -5.259616 -2.759442 -0.850299 7.469429 -6.164013 -5.132461 -3.143096 -0.232360 0.266202 0.000000 0.000000 0.000000 3.390550 3.027286 1.859703 -59.623633 -5.126928 11.550378 -0.245339 -84.470341 -0.000844 -0.892446 5.715278 -0.038960 -0.061668 0.233822 0.000000 0.000000 0.000000 0.000000 0.000000 0.000000 0.000000 10.891666 -3.563621 1.522498 72.727032 -4.438433 0.370900 0.893309 59.441898 -0.019304 -6.102560 0.565874 -0.040766 0.081813 -0.199186 -0.000000 0.000000 0.000000 0.000000 0.000000 0.000000 0.000000 
-1.428830 15.841534 -0.483659 44.390469 81.699792 70.089782 5.413186 -2.809253 11.071901 0.468447 -2.708684 -0.855419 -5.233186 -2.716079 -0.876281 7.531249 -5.883012 -5.008675 -3.121192 -0.231880 0.299390 0.000000 0.000000 0.000000 3.228108 2.974424 1.917439 -60.260390 -4.440999 12.012627 -0.332150 -83.157293 0.000700 -1.183014 5.660729 -0.052678 -0.056562 0.225883 0.000000 0.000000 0.000000 0.000000 0.000000 0.000000 0.000000 10.850128 -3.276232 1.445005 72.770423 -3.196081 0.153738 0.859152 59.549855 -0.021195 -6.468274 0.500121 -0.039772 0.084498 -0.204039 -0.000000 0.000000 0.000000 0.000000 0.000000 0.000000 0.000000 
